<?xml version="1.0" encoding="utf-8"?>
<!-- Generator: Adobe Illustrator 17.1.0, SVG Export Plug-In . SVG Version: 6.00 Build 0)  -->
<!DOCTYPE svg PUBLIC "-//W3C//DTD SVG 1.1//EN" "http://www.w3.org/Graphics/SVG/1.1/DTD/svg11.dtd">
<svg version="1.1" id="Layer_1" xmlns="http://www.w3.org/2000/svg" xmlns:xlink="http://www.w3.org/1999/xlink" x="0px" y="0px"
	 viewBox="0 0 860 540" enable-background="new 0 0 860 540" xml:space="preserve">
<radialGradient id="SVGID_1_" cx="-322.4877" cy="-134.5573" r="1273.8379" gradientUnits="userSpaceOnUse">
	<stop  offset="0" style="stop-color:#9DD5F6"/>
	<stop  offset="7.110000e-02" style="stop-color:#98D3F5"/>
	<stop  offset="0.1575" style="stop-color:#89CEF3"/>
	<stop  offset="0.2516" style="stop-color:#70C6EF"/>
	<stop  offset="0.3514" style="stop-color:#4EBBEA"/>
	<stop  offset="0.4546" style="stop-color:#23ADE3"/>
	<stop  offset="0.5" style="stop-color:#0DA6E0"/>
	<stop  offset="1" style="stop-color:#2E77BC"/>
</radialGradient>
<path fill="url(#SVGID_1_)" d="M817.2,538H42.8C20.2,538,2,519.8,2,497.2V42.9C2,20.3,20.2,2.1,42.8,2.1h774.5
	c22.5,0,40.8,18.2,40.8,40.8v454.4C858,519.8,839.8,538,817.2,538z"/>
<g>
	<path fill="#FFFFFF" d="M72,204.1L57,167.8l-14.8,36.4H72z M400.8,189.6c-3,1.8-6.5,1.9-10.8,1.9h-26.5v-20.3h26.9
		c3.8,0,7.8,0.2,10.3,1.6c2.8,1.3,4.6,4.2,4.6,8.1C405.3,185,403.7,188.2,400.8,189.6z M589.9,204.1l-15.1-36.4l-15,36.4H589.9z
		 M237.5,243.5h-22.4l-0.1-71.5l-31.6,71.5h-19.2L132.6,172v71.5H88.2l-8.4-20.4H34.4l-8.5,20.4H2.3l39.1-91.3h32.4l37.1,86.4v-86.4
		h35.6l28.5,61.9l26.2-61.9h36.3L237.5,243.5L237.5,243.5z M326.6,243.5h-72.9v-91.3h72.9v19h-51.1v16.4h49.8v18.7h-49.8v18.2h51.1
		V243.5z M429.4,176.8c0,14.5-9.7,22.1-15.4,24.3c4.8,1.8,8.9,5,10.8,7.7c3.1,4.5,3.6,8.6,3.6,16.7v17.9h-22l-0.1-11.5
		c0-5.5,0.5-13.4-3.4-17.8c-3.2-3.2-8-3.9-15.9-3.9h-23.4v33.2h-21.8v-91.3h50.2c11.1,0,19.4,0.3,26.4,4.4
		C425.2,160.7,429.4,166.7,429.4,176.8z M464.3,243.5H442v-91.3h22.3V243.5z M722.5,243.5h-30.9L650.2,175v68.5h-44.4l-8.5-20.4H552
		l-8.2,20.4h-25.5c-10.6,0-24-2.3-31.6-10.1c-7.7-7.7-11.7-18.2-11.7-34.8c0-13.5,2.4-25.9,11.8-35.7c7.1-7.3,18.1-10.6,33.1-10.6
		H541v19.6h-20.7c-8,0-12.5,1.2-16.8,5.4c-3.7,3.8-6.3,11.1-6.3,20.7c0,9.8,1.9,16.8,6,21.4c3.4,3.6,9.5,4.7,15.2,4.7h9.8l30.7-71.8
		h32.7l36.9,86.3v-86.3h33.2l38.3,63.6v-63.6h22.3V243.5L722.5,243.5z M2,261.4h37.3l8.4-20.3h18.8l8.4,20.3h73.3v-15.5l6.5,15.6
		h38.1l6.5-15.8v15.7h182.2l-0.1-33.3h3.5c2.5,0.1,3.2,0.3,3.2,4.4v28.9h94.3v-7.7c7.6,4.1,19.4,7.7,35,7.7h39.6l8.5-20.3h18.8
		l8.3,20.3h76.4v-19.3l11.6,19.3h61.2V134.2h-60.6v15l-8.5-15h-62.2v15l-7.8-15h-84c-14.1,0-26.4,2-36.4,7.4v-7.4h-58v7.4
		c-6.4-5.6-15-7.4-24.6-7.4H188.1L173.9,167l-14.6-32.9H92.6v15l-7.3-15H28.4L2,194.7L2,261.4L2,261.4z"/>
	<path fill="#FFFFFF" d="M857.9,341.1h-44.6c-4.5,0-7.4,0.2-9.9,1.9c-2.6,1.7-3.6,4.1-3.6,7.4c0,3.9,2.2,6.5,5.4,7.6
		c2.6,0.9,5.4,1.2,9.4,1.2l13.3,0.4c13.4,0.3,22.3,2.6,27.8,8.3c1,0.8,1.6,1.7,2.3,2.5 M857.9,408.7c-5.9,8.7-17.5,13.1-33.2,13.1
		h-47.3v-22h47.1c4.7,0,7.9-0.6,9.9-2.5c1.7-1.6,2.9-3.9,2.9-6.7c0-3-1.2-5.4-3-6.8c-1.8-1.6-4.4-2.3-8.6-2.3
		c-23-0.8-51.7,0.7-51.7-31.7c0-14.9,9.4-30.5,35.1-30.5h48.8V299h-45.3c-13.7,0-23.6,3.3-30.6,8.4V299h-67
		c-10.7,0-23.3,2.7-29.3,8.4V299H565.9v8.4c-9.5-6.9-25.6-8.4-33-8.4h-79v8.4c-7.5-7.3-24.3-8.4-34.5-8.4h-88.4l-20.2,21.9
		L291.9,299h-132v143h129.5l20.8-22.2l19.6,22.2l79.8,0.1v-33.6h7.8c10.6,0.2,23.1-0.3,34.1-5v38.6h65.8v-37.3h3.2
		c4.1,0,4.5,0.2,4.5,4.2v33h200c12.7,0,26-3.3,33.3-9.1v9.1H822c13.2,0,26.1-1.8,35.9-6.6V408.7L857.9,408.7z M760.2,367.8
		c4.8,4.9,7.3,11.2,7.3,21.7c0,22-13.8,32.3-38.5,32.3h-47.7v-22h47.5c4.6,0,7.9-0.6,10-2.5c1.7-1.6,2.9-3.9,2.9-6.7
		c0-3-1.3-5.4-3-6.8c-1.9-1.6-4.5-2.3-8.7-2.3c-22.9-0.8-51.6,0.7-51.6-31.7c0-14.9,9.3-30.5,35-30.5h49.1v21.8h-44.9
		c-4.5,0-7.3,0.2-9.8,1.8c-2.7,1.7-3.7,4.1-3.7,7.4c0,3.9,2.3,6.5,5.4,7.6c2.6,0.9,5.4,1.2,9.5,1.2l13.2,0.4
		C745.5,359.8,754.7,362.1,760.2,367.8z M539.3,361.4c-3.3,1.9-7.3,2.1-12.1,2.1h-29.7v-23h30.2c4.4,0,8.7,0.1,11.7,1.8
		c3.2,1.7,5.1,4.8,5.1,9.2C544.3,356,542.4,359.5,539.3,361.4z M554,374.2c5.4,2,9.9,5.6,12,8.6c3.5,5,4,9.7,4.1,18.7v20.3h-24.6
		V409c0-6.2,0.6-15.3-4-20.1c-3.6-3.7-9-4.6-18-4.6h-26.2v37.4h-24.6V319.3h56.5c12.4,0,21.4,0.5,29.5,4.8
		c7.7,4.7,12.6,11.1,12.6,22.8C571.4,363.3,560.5,371.6,554,374.2z M585,319.3h81.7v21.2h-57.3v18.6h55.9v20.9h-55.9v20.4l57.3,0.1
		v21.3H585V319.3z M419.8,366.6h-31.6v-26.1H420c8.8,0,15,3.6,15,12.6C435,362,429.2,366.6,419.8,366.6z M363.7,412.5l-37.6-41.7
		l37.6-40.4V412.5z M266.6,400.5h-60.2v-20.4h53.8v-20.9h-53.8v-18.6h61.4l26.8,29.9L266.6,400.5z M461.3,353.1
		c0,28.5-21.2,34.3-42.6,34.3h-30.6v34.4h-47.6l-30.2-33.9L279,421.8h-97V319.3h98.5l30.1,33.6l31.1-33.6H420
		C439.5,319.3,461.3,324.7,461.3,353.1z"/>
</g>
<g>
</g>
<g>
</g>
<g>
</g>
<g>
</g>
<g>
</g>
<g>
</g>
<g>
</g>
<g>
</g>
<g>
</g>
<g>
</g>
<g>
</g>
<g>
</g>
<g>
</g>
<g>
</g>
<g>
</g>
</svg>
