<?xml version="1.0" encoding="utf-8"?>
<!-- Generator: Adobe Illustrator 17.1.0, SVG Export Plug-In . SVG Version: 6.00 Build 0)  -->
<!DOCTYPE svg PUBLIC "-//W3C//DTD SVG 1.1//EN" "http://www.w3.org/Graphics/SVG/1.1/DTD/svg11.dtd">
<svg version="1.1" id="Layer_1" xmlns="http://www.w3.org/2000/svg" xmlns:xlink="http://www.w3.org/1999/xlink" x="0px" y="0px"
	 viewBox="0 0 860 540" enable-background="new 0 0 860 540" xml:space="preserve">
<radialGradient id="SVGID_1_" cx="-322.4877" cy="-134.5573" r="1273.8379" gradientUnits="userSpaceOnUse">
	<stop  offset="0" style="stop-color:#9DD5F6"/>
	<stop  offset="7.110000e-02" style="stop-color:#98D3F5"/>
	<stop  offset="0.1575" style="stop-color:#89CEF3"/>
	<stop  offset="0.2516" style="stop-color:#70C6EF"/>
	<stop  offset="0.3514" style="stop-color:#4EBBEA"/>
	<stop  offset="0.4546" style="stop-color:#23ADE3"/>
	<stop  offset="0.5" style="stop-color:#0DA6E0"/>
	<stop  offset="1" style="stop-color:#2E77BC"/>
</radialGradient>
<path fill="url(#SVGID_1_)" d="M817.2,538H42.8C20.2,538,2,519.8,2,497.2V42.9C2,20.3,20.2,2.1,42.8,2.1h774.5
	c22.5,0,40.8,18.2,40.8,40.8v454.4C858,519.8,839.8,538,817.2,538z"/>
<g>
	<polygon fill="#FFFFFF" points="557,212 557,243 656,243 656,279 557,279 557,318 664,318 714.2,264.8 666.1,212 	"/>
	<g>
		<polygon fill="#FFFFFF" points="82.4,278 142,278 112.1,205.1 		"/>
		<path fill="#FFFFFF" d="M858,137h-78.4l-36.3,39.3l-34-39.3H374.7l-28.5,65.8L317,137H184v30.1L168.7,137H54.8L2,258.2V391H1.9
			h74.6l16.8-40h37.7l16.8,40H295v-30.1l12.8,30.1h76.2l12.9-30.6V391h307.9l37.4-41.7l35.5,41.7H858v-91.8l-33.2-33.5l33.2-34V137z
			 M428.8,356l-0.2-143.2L365.3,356h-38.4L265,212.7V356h-90.4l-16.8-40h-91l-17,40H2.4l78.2-182h64.9L220,346.3V174h71.2l57.2,124
			l52.5-124H474v182H428.8z M770.8,265.3L854,356h-57.4l-54.1-60.9L686.3,356H512V174h176.9l54,60.3l55.9-60.3H857L770.8,265.3z"/>
	</g>
</g>
<g>
</g>
<g>
</g>
<g>
</g>
<g>
</g>
<g>
</g>
<g>
</g>
<g>
</g>
<g>
</g>
<g>
</g>
<g>
</g>
<g>
</g>
<g>
</g>
<g>
</g>
<g>
</g>
<g>
</g>
</svg>
