<?xml version="1.0" encoding="utf-8"?>
<!-- Generator: Adobe Illustrator 17.1.0, SVG Export Plug-In . SVG Version: 6.00 Build 0)  -->
<!DOCTYPE svg PUBLIC "-//W3C//DTD SVG 1.1//EN" "http://www.w3.org/Graphics/SVG/1.1/DTD/svg11.dtd">
<svg version="1.1" id="Layer_1" xmlns="http://www.w3.org/2000/svg" xmlns:xlink="http://www.w3.org/1999/xlink" x="0px" y="0px"
	 viewBox="0 0 860 540" enable-background="new 0 0 860 540" xml:space="preserve">
<path fill="#333333" d="M817.2,538H42.8C20.2,538,2,519.8,2,497.2V42.9C2,20.3,20.2,2.1,42.8,2.1h774.5c22.5,0,40.8,18.2,40.8,40.8
	v454.4C858,519.8,839.8,538,817.2,538z"/>
<radialGradient id="SVGID_1_" cx="442.1173" cy="-217.5367" r="58.5726" gradientTransform="matrix(1 0 0 1 6.416 486.083)" gradientUnits="userSpaceOnUse">
	<stop  offset="5.618000e-03" style="stop-color:#FFEEE0"/>
	<stop  offset="0.1096" style="stop-color:#FEE9D7"/>
	<stop  offset="0.2793" style="stop-color:#FDDBBF"/>
	<stop  offset="0.4935" style="stop-color:#FBC597"/>
	<stop  offset="0.744" style="stop-color:#F8A560"/>
	<stop  offset="1" style="stop-color:#F48120"/>
</radialGradient>
<path fill="url(#SVGID_1_)" d="M448.6,210.6c-32.7,0-59.3,25.6-59.3,57.2c0,33.6,25.4,58.7,59.3,58.7c33.1,0,59.2-25.4,59.2-58
	C507.8,236.1,481.8,210.6,448.6,210.6z"/>
<path fill="#FFFFFF" d="M111.9,212.7H80v111.2h31.7c16.8,0,29-4,39.7-12.8c12.7-10.5,20.2-26.3,20.2-42.7
	C171.6,235.6,147.1,212.7,111.9,212.7z M137.2,296.3c-6.9,6.2-15.7,8.9-29.7,8.9h-5.8v-73.6h5.8c14,0,22.5,2.5,29.7,9
	c7.5,6.7,12,17,12,27.7C149.2,278.9,144.8,289.6,137.2,296.3z"/>
<rect x="181.6" y="212.7" fill="#FFFFFF" width="21.7" height="111.2"/>
<path fill="#FFFFFF" d="M256.3,255.4c-13-4.8-16.9-8-16.9-14c0-7,6.8-12.3,16.2-12.3c6.5,0,11.8,2.7,17.5,9l11.3-14.8
	c-9.3-8.2-20.5-12.4-32.7-12.4c-19.7,0-34.7,13.7-34.7,31.8c0,15.4,7,23.2,27.4,30.5c8.5,3,12.8,5,15,6.3c4.3,2.8,6.5,6.8,6.5,11.5
	c0,9-7.2,15.7-16.9,15.7c-10.3,0-18.7-5.2-23.7-14.8l-14,13.5c10,14.7,22,21.2,38.5,21.2c22.5,0,38.3-15,38.3-36.5
	C288.3,272.4,281,264.4,256.3,255.4z"/>
<path fill="#FFFFFF" d="M295.2,268.4c0,32.7,25.7,58.1,58.7,58.1c9.3,0,17.3-1.8,27.2-6.5v-25.5c-8.7,8.7-16.4,12.2-26.2,12.2
	c-21.8,0-37.4-15.8-37.4-38.4c0-21.3,16-38.2,36.4-38.2c10.3,0,18.2,3.7,27.2,12.5V217c-9.5-4.8-17.4-6.8-26.7-6.8
	C321.5,210.2,295.2,236.1,295.2,268.4z"/>
<polygon fill="#FFFFFF" points="556.8,287.4 527.2,212.7 503.5,212.7 550.7,326.8 562.4,326.8 610.4,212.7 586.9,212.7 "/>
<polygon fill="#FFFFFF" points="620.3,323.9 681.8,323.9 681.8,305.1 641.9,305.1 641.9,275.1 680.3,275.1 680.3,256.2 641.9,256.2 
	641.9,231.6 681.8,231.6 681.8,212.7 620.3,212.7 "/>
<path fill="#FFFFFF" d="M767.7,245.5c0-20.8-14.3-32.8-39.4-32.8h-32.2v111.2h21.7v-44.7h2.8l30,44.7h26.7l-35-46.8
	C758.7,273.7,767.7,262.6,767.7,245.5z M724.1,263.9h-6.3v-33.7h6.7c13.5,0,20.9,5.7,20.9,16.5C745.4,257.9,738,263.9,724.1,263.9z"
	/>
</svg>
