<?xml version="1.0" encoding="utf-8"?>
<!-- Generator: Adobe Illustrator 17.1.0, SVG Export Plug-In . SVG Version: 6.00 Build 0)  -->
<!DOCTYPE svg PUBLIC "-//W3C//DTD SVG 1.1//EN" "http://www.w3.org/Graphics/SVG/1.1/DTD/svg11.dtd">
<svg version="1.1" id="Layer_1" xmlns="http://www.w3.org/2000/svg" xmlns:xlink="http://www.w3.org/1999/xlink" x="0px" y="0px"
	 viewBox="0 0 860 540" enable-background="new 0 0 860 540" xml:space="preserve">
<path fill="#333333" d="M817.2,538H42.8C20.2,538,2,519.8,2,497.2V42.9C2,20.3,20.2,2.1,42.8,2.1h774.5c22.5,0,40.8,18.2,40.8,40.8
	v454.4C858,519.8,839.8,538,817.2,538z"/>
<g>
	<path fill-rule="evenodd" clip-rule="evenodd" fill="#00A0E3" d="M196.5,502.2h81.7c28.7,0,62-26.9,62-62V37.9h-79
		c-36.8,0-64.6,23.3-64.6,63.8V502.2L196.5,502.2z"/>
	<path fill-rule="evenodd" clip-rule="evenodd" fill="#EC1C24" d="M358.2,502.2h81.7c28.7,0,62-26.9,62-62V37.9h-79
		c-36.8,0-64.6,23.3-64.6,63.8V502.2L358.2,502.2z"/>
	<path fill-rule="evenodd" clip-rule="evenodd" fill="#00A551" d="M519.8,502.2h81.7c28.7,0,62-26.9,62-62V37.9h-79
		c-36.8,0-64.7,23.3-64.7,63.8V502.2L519.8,502.2z"/>
</g>
</svg>
