<?xml version="1.0" encoding="utf-8"?>
<!-- Generator: Adobe Illustrator 17.1.0, SVG Export Plug-In . SVG Version: 6.00 Build 0)  -->
<!DOCTYPE svg PUBLIC "-//W3C//DTD SVG 1.1//EN" "http://www.w3.org/Graphics/SVG/1.1/DTD/svg11.dtd">
<svg version="1.1" id="Layer_1" xmlns="http://www.w3.org/2000/svg" xmlns:xlink="http://www.w3.org/1999/xlink" x="0px" y="0px"
	 viewBox="0 0 860 540" enable-background="new 0 0 860 540" xml:space="preserve">
<path fill="#333333" d="M817.2,538H42.8C20.2,538,2,519.8,2,497.2V42.9C2,20.3,20.2,2.1,42.8,2.1h774.5c22.5,0,40.8,18.2,40.8,40.8
	v454.4C858,519.8,839.8,538,817.2,538z"/>
<g>
	<path fill="#FFFFFF" d="M511.3,68.9c13.8-16.3,34.1-25.2,58.5-25.2h87.8v380.4c0,36.6-35.8,72.3-72.3,72.3H495v-29.3
		c-13.8,17.1-35,29.3-56.1,29.3h-90.2v-29.3c-13.8,17.1-35,29.3-56.1,29.3h-90.2V117.7c0-44.7,31.7-74,74.8-74H365v25.2
		c13.8-16.3,34.1-25.2,58.5-25.2h87.8V68.9L511.3,68.9z"/>
	<path fill="#00A0E3" d="M218.7,480.2h74c26,0,56.1-24.4,56.1-56.1V59.9h-71.5c-33.3,0-58.5,21.1-58.5,57.7v362.6H218.7z"/>
	<path fill="#EC1C24" d="M365,480.2h74c26,0,56.1-24.4,56.1-56.1V59.9h-71.5c-33.3,0-58.5,21.1-58.5,57.7v362.6H365z"/>
	<path fill="#00A551" d="M511.3,480.2h74c26,0,56.1-24.4,56.1-56.1V59.9h-71.5c-33.3,0-58.5,21.1-58.5,57.7L511.3,480.2L511.3,480.2
		z"/>
	<path fill="#FFFFFF" d="M239,280.2h-20.3c5.7,22.8,32.5,40.6,62.6,40.6c27.6,0,65-15.4,65-44.7v-52.8H300v52.8
		c0,15.4-12.2,27.6-29.3,27.6C255.2,303.8,241.4,294,239,280.2L239,280.2z"/>
	<path fill="#FFFFFF" d="M641.3,290.8c0,12.2-10.6,21.9-24.4,21.9H514.5v-89.4h102.4c12.2,0,22.8,10.6,22.8,22.8
		s-10.6,22.8-22.8,22.8C630.8,268.8,641.3,278.6,641.3,290.8L641.3,290.8z M553.5,264h31.7c8.1,0,15.4-7.3,15.4-15.4
		s-7.3-15.4-15.4-15.4h-31.7V264L553.5,264z M586.1,303c8.1,0,15.4-7.3,15.4-15.4s-7.3-15.4-15.4-15.4h-32.5V303H586.1L586.1,303z"
		/>
	<path fill="#FFFFFF" d="M491.8,297.3v15.4h-78c-24.4,0-44.7-20.3-44.7-44.7c0-24.4,20.3-44.7,44.7-44.7h78v16.3
		c-18.7-4.1-36.6-6.5-45.5-6.5c-19.5,0-34.9,15.4-34.9,35c0,19.5,15.4,35,34.9,35C455.2,303,473.1,301.3,491.8,297.3L491.8,297.3z"
		/>
</g>
</svg>
