<?xml version="1.0" encoding="utf-8"?>
<!-- Generator: Adobe Illustrator 17.1.0, SVG Export Plug-In . SVG Version: 6.00 Build 0)  -->
<!DOCTYPE svg PUBLIC "-//W3C//DTD SVG 1.1//EN" "http://www.w3.org/Graphics/SVG/1.1/DTD/svg11.dtd">
<svg version="1.1" id="Layer_1" xmlns="http://www.w3.org/2000/svg" xmlns:xlink="http://www.w3.org/1999/xlink" x="0px" y="0px"
	 viewBox="0 0 860 540" enable-background="new 0 0 860 540" xml:space="preserve">
<path fill="#333333" d="M817.2,538H42.8C20.2,538,2,519.8,2,497.2V42.9C2,20.3,20.2,2.1,42.8,2.1h774.5c22.5,0,40.8,18.2,40.8,40.8
	v454.4C858,519.8,839.8,538,817.2,538z"/>
<g>
	<path fill="#009DDD" d="M430,417.3c40.7-37.2,66.3-90.9,66.3-150.6S470.7,153.3,430,116.1c-35.8-32.7-83.3-52.6-135.4-52.6
		C183.3,63.5,93,154.5,93,266.7s90.3,203.2,201.7,203.2C346.7,469.9,394.2,449.9,430,417.3L430,417.3z"/>
	<path fill="#ED1C2E" d="M565.4,63.5c-52.1,0-99.6,19.9-135.4,52.6c-7.3,6.7-14.1,13.9-20.4,21.5h40.7c5.6,6.8,10.7,14,15.4,21.5
		h-71.5c-4.3,6.9-8.2,14.1-11.6,21.5h94.7c3.2,7,6.1,14.1,8.6,21.5H374.1c-2.3,7-4.3,14.2-5.9,21.5h123.5c3,13.9,4.5,28.3,4.5,43
		c0,22.6-3.7,44.3-10.4,64.5H374.1c2.4,7.4,5.3,14.6,8.5,21.5h94.7c-3.5,7.4-7.3,14.6-11.6,21.5h-71.5c4.7,7.5,9.8,14.7,15.4,21.5
		h40.7c-6.3,7.7-13.1,14.9-20.3,21.5c35.8,32.7,83.3,52.6,135.4,52.6c111.4,0,201.7-91,201.7-203.2C767,154.5,676.7,63.5,565.4,63.5
		L565.4,63.5z"/>
	<polygon fill="#FFFFFF" points="269.4,317.3 244.3,317.3 259.3,238.1 224.9,317.3 202,317.3 197.8,238.6 182.9,317.3 160.1,317.3 
		179.6,214.3 218.7,214.3 220.8,278.1 248.4,214.3 289.2,214.3 	"/>
	<path fill="#FFFFFF" d="M549.9,316.3c-6.9,1.9-12.2,2.7-18,2.7c-12.8,0-19.9-6.5-19.9-18.4c0-2.4,0.3-4.9,0.7-7.5l1.5-8.2l1.2-6.6
		l11.6-64h25l-3.6,19.2h12.8l-3.4,20.4H545l-6.6,34.9c-0.3,1.5-0.4,2.7-0.4,3.5c0,4.3,2.6,6.2,8.6,6.2c2.9,0,5.1-0.3,6.8-0.8
		L549.9,316.3L549.9,316.3z"/>
	<path fill="#FFFFFF" d="M623.2,234.2c-2.1-0.8-2.6-0.8-2.8-0.9c-1.3-0.3-2-0.5-2.2-0.5c-0.8-0.1-1.6-0.2-2.5-0.2
		c-8.2,0-14.2,3.7-21.9,13.6l2.2-12.7h-22.7L558,317.3h25.1c9-51.2,12.8-60.2,24.9-60.2c0.9,0,2,0.1,3.2,0.2l2.9,0.6L623.2,234.2
		L623.2,234.2z"/>
	<path fill="#FFFFFF" d="M450.4,260c0,10.6,5.9,17.9,19.3,23.3c10.3,4.2,11.9,5.4,11.9,9.2c0,5.2-4.5,7.6-14.6,7.6
		c-7.6,0-14.6-1-22.8-3.3l-3.5,19.3l1.1,0.2l4.7,0.9c1.5,0.3,3.7,0.5,6.6,0.7c6,0.5,10.7,0.7,14,0.7c26.8,0,39.2-8.8,39.2-28
		c0-11.5-5.2-18.2-17.9-23.3c-10.6-4.2-11.9-5.2-11.9-9.1c0-4.5,4.2-6.8,12.4-6.8c5,0,11.8,0.5,18.2,1.3l3.6-19.4
		c-6.6-0.9-16.5-1.6-22.3-1.6C460.2,231.7,450.3,244.5,450.4,260L450.4,260z"/>
	<path fill="#FFFFFF" d="M351,317.3h-20.9l0.5-8.7c-6.4,6.9-14.8,10.1-26.3,10.1c-13.6,0-22.9-9.3-22.9-22.9
		c0-20.4,16.2-32.3,44.1-32.3c2.9,0,6.5,0.2,10.2,0.6c0.8-2.8,1-3.9,1-5.4c0-5.5-4.4-7.6-16.1-7.6c-7.2,0-15.3,0.9-20.9,2.3
		l-3.5,0.9l-2.3,0.5l3.5-18.8c12.5-3.2,20.8-4.4,30-4.4c21.6,0,33,8.5,33,24.6c0,4.1-0.4,7.3-2,16.6l-5.2,29.7l-0.9,5.3l-0.6,4.3
		l-0.4,2.9L351,317.3L351,317.3z M332.7,280c-2.6-0.3-3.8-0.3-5.6-0.3c-14.2,0-21.4,4.3-21.4,12.7c0,5.2,3.5,8.5,9,8.5
		C324.9,300.9,332.3,292.4,332.7,280L332.7,280z"/>
	<path fill="#FFFFFF" d="M433.4,315.5c-8.6,2.3-16.9,3.4-25.7,3.4c-28.1,0-42.7-12.9-42.7-37.5c0-28.8,18.6-49.9,43.9-49.9
		c20.7,0,33.9,11.9,33.9,30.4c0,6.2-0.9,12.2-3.1,20.7h-49.9c-0.2,1.3-0.2,1.9-0.2,2.6c0,9.7,7.4,14.7,22,14.7
		c9,0,17.1-1.6,26.1-5.3L433.4,315.5L433.4,315.5z M420,265.6c0.1-1.7,0.2-3.2,0.2-4.3c0-6.8-4.4-10.8-11.9-10.8
		c-8,0-13.7,5.4-16,15L420,265.6L420,265.6z"/>
	<path fill="#FFFFFF" d="M701.2,279.3c-3.8,27.9-23.1,40.2-48.7,40.2c-28.4,0-39.9-17.4-39.9-38.6c0-29.7,19.4-49.8,49.4-49.8
		c26,0,39.9,16.5,39.9,37.8C701.9,274.1,701.9,274.4,701.2,279.3L701.2,279.3z M675.4,268.6c0-8.8-3.5-17-13.8-17
		c-12.8,0-20.7,15.3-20.7,28.7c0,11.4,5.4,19,14.4,18.8c5.4,0,17-7.5,19.3-20.5C675.1,275.5,675.4,272.2,675.4,268.6L675.4,268.6z"
		/>
</g>
</svg>
