<?xml version="1.0" encoding="utf-8"?>
<!-- Generator: Adobe Illustrator 17.1.0, SVG Export Plug-In . SVG Version: 6.00 Build 0)  -->
<!DOCTYPE svg PUBLIC "-//W3C//DTD SVG 1.1//EN" "http://www.w3.org/Graphics/SVG/1.1/DTD/svg11.dtd">
<svg version="1.1" id="Layer_1" xmlns="http://www.w3.org/2000/svg" xmlns:xlink="http://www.w3.org/1999/xlink" x="0px" y="0px"
	 viewBox="0 0 860 540" enable-background="new 0 0 860 540" xml:space="preserve">
<path fill="#333333" d="M817.2,538H42.8C20.2,538,2,519.8,2,497.2V42.9C2,20.3,20.2,2.1,42.8,2.1h774.5c22.5,0,40.8,18.2,40.8,40.8
	v454.4C858,519.8,839.8,538,817.2,538z"/>
<path fill="#FF9900" d="M429.6,425.8c36.9,33.6,85.9,54.2,139.6,54.2c114.8,0,207.9-93.7,207.9-209.2S684,61.6,569.2,61.6
	c-53.7,0-102.7,20.5-139.6,54.1c-42,38.3-68.4,93.6-68.4,155.1C361.3,332.2,387.6,387.5,429.6,425.8L429.6,425.8z"/>
<g>
	<g>
		<path fill="#CC0000" d="M409.6,404c-5.5-7-10.7-14-15.3-22h72.8c4.5-7,8.6-15,12.2-22H382c-3.2-7-6.1-14-8.6-22h114.5
			c2.6-7,4.8-15,6.5-23H367c-1.5-7-2.6-14-3.4-22h134.3c0.8-7,1.2-14,1.2-22H362.3c0,0,0,0,0-0.1c0-7.1,0.4-13.9,1.1-20.9H498
			c-0.8-8-2-16-3.7-24H367.1c1.6-7,3.5-14,5.8-21h115.6c-2.7-8-5.8-16-9.4-24h-96.8c3.5-7,7.4-14,11.6-21h73.5
			c-4.9-8-10.3-16-16.1-23H410c6.3-7,13-14.5,20.3-21.2l0.3-0.3C393.7,81.9,344.8,61.4,291,61.4c-53.7,0-102.7,20.5-139.6,54.2
			c-42,38.3-68.4,93.6-68.4,155.1s26.4,116.8,68.4,155.1c36.9,33.6,85.9,54.4,139.6,54.4c64.7,0,122.5-30.2,160.7-76.2H409.6z"/>
	</g>
</g>
</svg>
