<?xml version="1.0" encoding="utf-8"?>
<!-- Generator: Adobe Illustrator 17.1.0, SVG Export Plug-In . SVG Version: 6.00 Build 0)  -->
<!DOCTYPE svg PUBLIC "-//W3C//DTD SVG 1.1//EN" "http://www.w3.org/Graphics/SVG/1.1/DTD/svg11.dtd">
<svg version="1.1" id="Layer_1" xmlns="http://www.w3.org/2000/svg" xmlns:xlink="http://www.w3.org/1999/xlink" x="0px" y="0px"
	 viewBox="0 0 860 540" enable-background="new 0 0 860 540" xml:space="preserve">
<path fill="#333333" d="M817.2,538H42.8C20.2,538,2,519.8,2,497.2V42.9C2,20.3,20.2,2.1,42.8,2.1h774.5c22.5,0,40.8,18.2,40.8,40.8
	v454.4C858,519.8,839.8,538,817.2,538z"/>
<g>
	<path fill="#FCB131" d="M428.7,425c36.7,33.5,85.4,53.9,138.8,53.9c114.2,0,206.8-93.2,206.8-208.1S681.7,62.7,567.5,62.7
		c-53.4,0-102.1,20.4-138.8,53.9c-41.8,38.1-68,93.1-68,154.2C360.7,332,386.9,387,428.7,425L428.7,425z"/>
	<path fill="#ED1C2E" d="M495.5,248.8c-0.8-7.5-2-14.8-3.5-22H365.3c1.6-7.5,3.6-14.9,6-22H486c-2.5-7.5-5.4-14.9-8.8-22h-97.1
		c3.5-7.6,7.5-15,11.9-22h73.2c-4.8-7.7-10.1-15.1-15.8-22h-41.7c6.4-7.8,13.4-15.2,20.8-22C392,83.1,343.3,62.7,289.8,62.7
		C175.6,62.7,83,155.9,83,270.8s92.6,208.1,206.8,208.1c53.4,0,102.1-20.4,138.8-53.9l0,0l0,0c7.5-6.8,14.5-14.2,20.9-22h-41.7
		c-5.7-7-10.9-14.3-15.7-22h73.2c4.4-7.1,8.4-14.4,11.9-22h-97.1c-3.3-7.1-6.3-14.5-8.8-22H486c2.4-7.2,4.4-14.5,6-22
		c1.5-7.2,2.7-14.6,3.5-22c0.8-7.2,1.2-14.6,1.2-22C496.7,263.4,496.3,256,495.5,248.8L495.5,248.8z"/>
	<path fill="#FFFFFF" d="M565.5,223.1l-3.7,22.9c-8-4.1-13.8-5.7-20.1-5.7c-16.8,0-28.5,16.3-28.5,39.5c0,16,7.9,25.7,20.9,25.7
		c5.5,0,11.6-1.7,19.1-5.4l-4,24.1c-8.3,2.3-13.6,3.1-19.8,3.1c-24.2,0-39.2-17.5-39.2-45.6c0-37.7,20.8-64.1,50.6-64.1
		c3.8,0,7.2,0.4,10,1.1l9.2,2.3C562.9,222,563.5,222.2,565.5,223.1L565.5,223.1z"/>
	<path fill="#FFFFFF" d="M493.4,238.8c-0.7-0.1-1.4-0.2-2.3-0.2c-7.4,0-11.6,3.8-18.4,13.9l2-13h-20.3l-13.7,85.8h22.5
		c8-52.5,10.2-61.5,20.9-61.5c0.7,0,0.7,0,1.6,0.1c2-10.4,4.8-18,8.5-24.9L493.4,238.8L493.4,238.8z"/>
	<path fill="#FFFFFF" d="M364.1,324.3c-6.1,1.9-10.9,2.8-16.1,2.8c-11.5,0-17.7-6.6-17.7-18.8c0-2.4,0.2-5,0.7-7.7l1.4-8.4l1.1-6.8
		l9.7-58.6h22.3l-2.6,12.7h11.5l-3.1,20.9h-11.5l-5.9,35.8c-0.3,1.6-0.4,2.8-0.4,3.6c0,4.4,2.3,6.4,7.7,6.4c2.6,0,4.5-0.3,6.1-0.8
		L364.1,324.3L364.1,324.3z"/>
	<path fill="#FFFFFF" d="M277.8,266.6c0,10.8,5.2,18.3,17.1,23.9c9.1,4.3,10.5,5.6,10.5,9.5c0,5.3-4,7.8-12.9,7.8
		c-6.7,0-12.9-1.1-20.1-3.4l-3.1,19.8l1,0.2l4.1,0.9c1.3,0.3,3.3,0.5,5.9,0.8c5.3,0.5,9.5,0.7,12.4,0.7c23.7,0,34.6-9.1,34.6-28.7
		c0-11.8-4.6-18.7-15.8-23.9c-9.4-4.3-10.5-5.3-10.5-9.3c0-4.6,3.7-7,11-7c4.4,0,10.4,0.5,16.1,1.3l3.2-19.9
		c-5.8-0.9-14.6-1.7-19.7-1.7C286.4,237.6,277.8,250.8,277.8,266.6L277.8,266.6z"/>
	<path fill="#FFFFFF" d="M736.9,325.3h-21.2l1.1-8.4c-6.2,6.6-12.5,9.5-20.8,9.5c-16.3,0-27.1-14.2-27.1-35.6
		c0-28.6,16.7-52.6,36.5-52.6c8.7,0,15.4,3.6,21.5,11.8l4.9-30.1H754L736.9,325.3L736.9,325.3z M703.8,305.1
		c10.5,0,17.8-11.9,17.8-28.9c0-10.9-4.2-16.8-11.9-16.8c-10.2,0-17.4,12-17.4,28.9C692.3,299.4,696.1,305.1,703.8,305.1
		L703.8,305.1z"/>
	<path fill="#FFFFFF" d="M432.7,323.5c-7.7,2.4-15.1,3.5-23,3.5c-25.1,0-38.2-13.2-38.2-38.4c0-29.5,16.6-51.2,39.2-51.2
		c18.5,0,30.3,12.1,30.3,31.2c0,6.3-0.8,12.5-2.8,21.2h-44.6c-0.2,1.3-0.2,1.9-0.2,2.7c0,10,6.7,15,19.7,15c8,0,15.3-1.7,23.3-5.4
		L432.7,323.5L432.7,323.5z M420.1,272.4c0.1-1.8,0.2-3.3,0.2-4.4c0-7-3.9-11.1-10.6-11.1c-7.1,0-12.2,5.5-14.3,15.4L420.1,272.4
		L420.1,272.4z"/>
	<polygon fill="#FFFFFF" points="192.7,325.3 170.3,325.3 183.1,244.2 154.4,325.3 139.1,325.3 137.2,244.6 123.7,325.3 
		102.7,325.3 120.2,219.8 152.5,219.8 153.4,285.1 175.2,219.8 210.1,219.8 	"/>
	<path fill="#FFFFFF" d="M248,287.1c-2.4-0.3-3.4-0.4-5-0.4c-12.7,0-19.2,4.4-19.2,13.1c0,5.3,3.1,8.8,8,8.8
		C241,308.5,247.6,299.8,248,287.1L248,287.1z M264.3,325.3h-18.6l0.4-8.9c-5.7,7-13.3,10.4-23.5,10.4c-12.2,0-20.5-9.6-20.5-23.5
		c0-20.9,14.5-33.1,39.4-33.1c2.6,0,5.8,0.2,9.1,0.7c0.7-2.8,0.9-4,0.9-5.6c0-5.7-3.9-7.8-14.4-7.8c-6.4,0-13.7,0.9-18.6,2.4
		l-3.1,0.9l-2,0.5l3.1-19.3c11.2-3.3,18.6-4.5,26.9-4.5c19.3,0,29.5,8.7,29.5,25.2c0,4.2-0.3,7.5-1.8,17l-4.7,30.4l-0.8,5.5L265,320
		l-0.4,3L264.3,325.3L264.3,325.3z"/>
	<path fill="#FFFFFF" d="M601.7,287.1c-2.4-0.3-3.4-0.4-5-0.4c-12.7,0-19.2,4.4-19.2,13.1c0,5.3,3.1,8.8,8.1,8.8
		C594.7,308.5,601.3,299.8,601.7,287.1L601.7,287.1z M618,325.3h-18.6l0.4-8.9c-5.7,7-13.3,10.4-23.5,10.4
		c-12.2,0-20.5-9.6-20.5-23.5c0-20.9,14.5-33.1,39.4-33.1c2.6,0,5.8,0.2,9.1,0.7c0.7-2.8,0.9-4,0.9-5.6c0-5.7-3.9-7.8-14.4-7.8
		c-6.4,0-13.6,0.9-18.6,2.4l-3.1,0.9l-2,0.5l3.1-19.3c11.2-3.3,18.6-4.5,26.9-4.5c19.3,0,29.5,8.7,29.5,25.2c0,4.2-0.3,7.5-1.8,17
		l-4.7,30.4l-0.8,5.5l-0.6,4.4l-0.4,3L618,325.3L618,325.3z"/>
	<path fill="#FFFFFF" d="M678.3,238.8c-0.7-0.1-1.4-0.2-2.3-0.2c-7.4,0-11.6,3.8-18.4,13.9l2-13h-20.3l-13.7,85.8H648
		c8-52.5,10.2-61.5,20.9-61.5c0.7,0,0.7,0,1.5,0.1c2-10.4,4.8-18,8.5-24.9L678.3,238.8L678.3,238.8z"/>
</g>
</svg>
