<?xml version="1.0" encoding="utf-8"?>
<!-- Generator: Adobe Illustrator 17.1.0, SVG Export Plug-In . SVG Version: 6.00 Build 0)  -->
<!DOCTYPE svg PUBLIC "-//W3C//DTD SVG 1.1//EN" "http://www.w3.org/Graphics/SVG/1.1/DTD/svg11.dtd">
<svg version="1.1" id="Layer_1" xmlns="http://www.w3.org/2000/svg" xmlns:xlink="http://www.w3.org/1999/xlink" x="0px" y="0px"
	 viewBox="0 0 860 540" enable-background="new 0 0 860 540" xml:space="preserve">
<path fill="#336699" d="M817.2,538H42.8C20.2,538,2,519.8,2,497.2V42.9C2,20.3,20.2,2.1,42.8,2.1h774.5c22.5,0,40.8,18.2,40.8,40.8
	v454.4C858,519.8,839.8,538,817.2,538z"/>
<g id="layer1_2_" transform="translate(-428.71429,-460.51587)">
	<g id="g2993_2_" transform="matrix(1.3703704,0,0,-1.3703704,430.71429,538.48235)">
		<g id="g2999_2_">
			<g>
				<g id="g3001_2_">
					<g id="g3011_2_" transform="translate(39.137,49.474)">
						<path id="path3013_2_" fill="#FFFFFF" d="M420.1-116.9c-4.7,9.1-11.6,16.5-20.5,22c-9.2,5.7-20,9.6-32.5,12
							c-12.6,2.3-27.3,3.4-44.2,3.5l-78.2-0.1c-8.1-0.1-16.1-6.5-18-14.3L174-322.8c-1.8-7.8,3.3-14.3,11.4-14.3h37.4
							c8.1,0,16.1,6.3,17.9,14.3l12.9,55.6c1.7,7.8,9.7,14.2,17.8,14.2h10.7c45.8,0,81.3,9.4,106.8,28.2
							c25.5,18.7,38.2,43.5,38.2,74.2C427.3-137.2,424.9-125.9,420.1-116.9 M339.2-191.8c-11.3-8.3-26.9-12.4-47.2-12.4h-9.2
							c-8.1,0-13.2,6.4-11.4,14.3l11.3,48.6c1.7,7.8,9.8,14.3,17.9,14.2l12.3,0.1c14.3,0,25.2-2.4,32.5-7.3
							c7.2-4.7,10.9-12.2,10.8-22.3C356.3-171.8,350.6-183.5,339.2-191.8"/>
					</g>
				</g>
			</g>
		</g>
	</g>
</g>
<g id="layer1_1_" transform="translate(-428.71429,-460.51587)">
	<g id="g2993_1_" transform="matrix(1.3703704,0,0,-1.3703704,430.71429,538.48235)">
		<g id="g2999_1_">
			<g>
				<g id="g3001_1_">
					<g id="g3011_1_" transform="translate(39.137,49.474)">
						<path id="path3013_1_" fill="#336699" d="M404.6-101.5c-4.7,9.1-11.6,16.5-20.5,22c-9.2,5.7-20,9.6-32.5,12
							c-12.6,2.3-27.3,3.4-44.2,3.5L229.3-64c-8.1-0.1-16.1-6.5-18-14.3l-52.7-229.1c-1.8-7.8,3.3-14.3,11.4-14.3h37.4
							c8.1,0,16.1,6.3,17.9,14.3l12.9,55.6c1.7,7.8,9.7,14.2,17.8,14.2h10.7c45.8,0,81.3,9.4,106.8,28.2
							c25.5,18.7,38.2,43.5,38.2,74.2C411.8-121.8,409.5-110.5,404.6-101.5 M323.8-176.3c-11.3-8.3-26.9-12.4-47.2-12.4h-9.2
							c-8.1,0-13.2,6.4-11.4,14.3l11.3,48.6c1.7,7.8,9.8,14.3,17.9,14.2l12.3,0.1c14.3,0,25.2-2.4,32.5-7.3
							c7.2-4.7,10.9-12.2,10.8-22.3C340.9-156.3,335.1-168.1,323.8-176.3"/>
					</g>
				</g>
			</g>
		</g>
	</g>
</g>
<g id="layer1" transform="translate(-428.71429,-460.51587)">
	<g id="g2993" transform="matrix(1.3703704,0,0,-1.3703704,430.71429,538.48235)">
		<g id="g2999">
			<g>
				<g id="g3001">
					<g id="g3011" transform="translate(39.137,49.474)">
						<path id="path3013" fill="#FFFFFF" d="M392.9-89.7c-4.7,9.1-11.6,16.5-20.5,22c-9.2,5.7-20,9.6-32.5,12
							c-12.6,2.3-27.3,3.4-44.2,3.5l-78.2-0.1c-8.1-0.1-16.1-6.5-18-14.3l-52.7-229.1c-1.8-7.8,3.3-14.3,11.4-14.3h37.4
							c8.1,0,16.1,6.3,17.9,14.3l12.9,55.6c1.7,7.8,9.7,14.2,17.8,14.2H255c45.8,0,81.3,9.4,106.8,28.2
							c25.5,18.7,38.2,43.5,38.2,74.2C400.1-110,397.7-98.7,392.9-89.7 M312-164.6c-11.3-8.3-26.9-12.4-47.2-12.4h-9.2
							c-8.1,0-13.2,6.4-11.4,14.3l11.3,48.6c1.7,7.8,9.8,14.3,17.9,14.2l12.3,0.1c14.3,0,25.2-2.4,32.5-7.3
							c7.2-4.7,10.9-12.2,10.8-22.3C329.1-144.5,323.4-156.3,312-164.6"/>
					</g>
				</g>
			</g>
		</g>
	</g>
</g>
</svg>
