<?xml version="1.0" encoding="utf-8"?>
<!-- Generator: Adobe Illustrator 17.1.0, SVG Export Plug-In . SVG Version: 6.00 Build 0)  -->
<!DOCTYPE svg PUBLIC "-//W3C//DTD SVG 1.1//EN" "http://www.w3.org/Graphics/SVG/1.1/DTD/svg11.dtd">
<svg version="1.1" id="Layer_1" xmlns="http://www.w3.org/2000/svg" xmlns:xlink="http://www.w3.org/1999/xlink" x="0px" y="0px"
	 viewBox="0 0 860 540" enable-background="new 0 0 860 540" xml:space="preserve">
<path fill="#336699" d="M817.2,538H42.8C20.2,538,2,519.8,2,497.2V42.9C2,20.3,20.2,2.1,42.8,2.1h774.5c22.5,0,40.8,18.2,40.8,40.8
	v454.4C858,519.8,839.8,538,817.2,538z"/>
<g id="layer1" transform="translate(-428.71429,-460.51587)">
	<g id="g2993" transform="matrix(1.3703704,0,0,-1.3703704,430.71429,538.48235)">
		<g id="g2995" transform="translate(165.274,21.91)">
			<path id="path2997" fill="#FFFFFF" d="M313.7-176.7c-1.9-1.2-3.8-2.2-5.9-3c-2.8-1.1-5.4-1.7-7.8-1.7c-3.7,0-6.6,0.5-8.5,1.7
				c-1.9,1.1-2.9,2.9-2.9,5.6c0,3.1,0.7,5.4,2.2,7.3c1.5,1.8,3.7,3.2,6.4,4.3c2.7,0.9,6,1.7,9.9,2.2c3.4,0.4,10.2,1.2,11,1.2
				c0.9,0,1.4,0.5,1.1-1.8c-0.2-1-2.1-9-3-12.6C315.8-174.6,314.4-176.2,313.7-176.7z M340.2-120.4c-5.7,3.2-14.6,4.8-26.7,4.8
				c-6,0-12.1-0.5-18.1-1.4c-4.5-0.7-4.9-0.8-7.7-1.4c-5.7-1.2-6.6-6.9-6.6-6.9l-1.8-7.5c-1-4.8,1.7-4.6,2.9-4.2
				c2.5,0.8,3.8,1.5,8.9,2.6c4.8,1.1,10,1.9,14,1.9c6,0,10.5-0.7,13.6-1.9c3-1.3,4.5-3.6,4.5-6.8c0-0.8,0-1.5-0.2-2.1
				s-0.7-1.2-2.2-1.4c-8.6-0.5-14.7-1.3-22.1-2.4c-7.3-1-13.7-2.8-19-5.2c-5.7-2.5-9.9-5.9-12.9-10.2c-2.9-4.3-4.3-9.5-4.3-15.6
				c0-5.8,2.1-10.5,6.1-14.2c4.1-3.6,9.4-5.4,15.8-5.4c4,0,7.1,0.3,9.4,0.9c2.2,0.6,4.7,1.4,7.2,2.5c1.9,0.8,4,2,6.2,3.4
				c2.2,1.5,3.7,2.5,5.6,3.8l0.1-0.1l-0.5-2.4c0,0,0,0,0-0.1l0,0c-0.6-2.9,1.1-5.3,4-5.6v-0.1h0.3l0,0c1.9,0,8.5,0,11.5,0h2.1
				c0.1,0,0.2,0,0.2,0.1c2.9,0.4,5.7,2.8,6.4,5.6l10.9,47.2c0.3,1.1,0.5,2.4,0.6,3.9s0.3,2.7,0.2,3.6
				C348.7-128.6,345.9-123.6,340.2-120.4"/>
		</g>
		<g id="g2999">
			<g>
				<g id="g3001">
					<g id="g3007" transform="translate(101.082,45.728)">
						<path id="path3009" fill="#FFFFFF" d="M216.3-140.5c-3.2,0-7.4-2.6-9.4-5.7c0,0-21.4-36.8-23.6-40.4c-1.1-2-2.3-0.7-2.5,0
							c-0.2,0.9-6.6,40.2-6.6,40.2c-0.7,3.2-4,5.9-8.2,5.9h-13.4c-3.2,0-5.2-2.6-4.5-5.7c0,0,10.2-58,12.2-71.6
							c1-7.5-0.1-8.9-0.1-8.9L147-249.9c-1.9-3.1-0.9-5.7,2.3-5.7h15.5c3.2,0,7.5,2.6,9.4,5.7l59.6,100.8c0,0,5.7,8.6,0.4,8.5
							C230.7-140.6,216.3-140.5,216.3-140.5"/>
					</g>
					<g id="g3011" transform="translate(39.137,49.474)">
						<path id="path3013" fill="#FFFFFF" d="M122.4-134.8c-1.9,3.6-4.6,6.6-8.2,8.8c-3.7,2.3-8,3.8-13,4.8c-5,0.9-10.9,1.3-17.7,1.4
							H52.3c-3.2,0-6.4-2.6-7.2-5.7L24-217.2c-0.7-3.1,1.3-5.7,4.5-5.7h15c3.2,0,6.4,2.5,7.2,5.7l5.2,22.2c0.7,3.1,3.9,5.7,7.1,5.7
							h4.3c18.3,0,32.5,3.8,42.7,11.3c10.2,7.5,15.3,17.4,15.3,29.7C125.2-143,124.3-138.4,122.4-134.8 M90-164.8
							c-4.5-3.3-10.8-5-18.9-5h-3.7c-3.2,0-5.3,2.6-4.6,5.7l4.5,19.4c0.7,3.1,3.9,5.7,7.1,5.7h4.9c5.7,0,10.1-1,13-2.9
							s4.4-4.9,4.3-8.9C96.9-156.8,94.6-161.5,90-164.8"/>
					</g>
				</g>
			</g>
		</g>
		<g id="g3015" transform="translate(147.108,49.341)">
			<path id="path3017" fill="#FFFFFF" d="M286.2-135c-1.9,3.6-4.7,6.6-8.2,8.8c-3.7,2.3-8,3.9-13,4.8s-10.9,1.4-17.6,1.4h-31.3
				c-3.2-0.1-6.4-2.6-7.1-5.7l-21.1-91.6c-0.8-3.1,1.3-5.7,4.5-5.7h15c3.2,0,6.4,2.5,7.2,5.7l5.1,22.2c0.7,3.1,4,5.7,7.2,5.7h4.3
				c18.3,0,32.5,3.8,42.7,11.3c10.2,7.5,15.3,17.4,15.3,29.7C289-143.2,288.1-138.6,286.2-135 M253.8-165
				c-4.5-3.3-10.8-4.9-18.9-4.9h-3.7c-3.2,0-5.3,2.6-4.5,5.7l4.5,19.4c0.7,3.1,3.9,5.7,7.1,5.7h4.9c5.7,0,10-1,13-2.9
				c2.9-1.9,4.3-4.9,4.4-8.9C260.6-157,258.3-161.7,253.8-165"/>
		</g>
		<g id="g3019" transform="translate(57.28,21.938)">
			<path id="path3021" fill="#FFFFFF" d="M149.9-176.6c-1.9-1.2-3.8-2.2-5.9-3c-2.8-1.1-5.4-1.7-7.8-1.7c-3.7,0-6.6,0.5-8.5,1.6
				c-1.9,1.1-3,2.9-2.9,5.6c0,3.1,0.7,5.4,2.2,7.3c1.5,1.8,3.7,3.2,6.4,4.3c2.7,0.9,6,1.7,9.9,2.2c3.4,0.4,10.2,1.2,11,1.2
				c0.9,0,1.4,0.5,1-1.8c-0.2-1-2.1-9-3-12.6C152-174.6,150.5-176.2,149.9-176.6z M176.4-120.4c-5.7,3.2-14.6,4.8-26.7,4.8
				c-6,0-12.1-0.5-18.1-1.4c-4.5-0.7-4.9-0.8-7.7-1.4c-5.7-1.2-6.6-6.9-6.6-6.9l-1.8-7.5c-1-4.8,1.7-4.6,2.9-4.2
				c2.5,0.8,3.8,1.5,8.9,2.6c4.8,1.1,10,1.9,14,1.9c6,0,10.5-0.7,13.6-1.9c3-1.3,4.5-3.6,4.5-6.8c0-0.8,0-1.5-0.2-2.1
				c-0.3-0.6-0.7-1.2-2.2-1.4c-8.5-0.5-14.7-1.3-22.1-2.4c-7.3-1-13.7-2.8-19-5.2c-5.7-2.5-9.9-5.9-12.9-10.2
				c-2.9-4.3-4.3-9.5-4.3-15.6c0-5.8,2.1-10.5,6.1-14.2c4.1-3.6,9.4-5.4,15.8-5.4c4,0,7.1,0.3,9.4,0.9c2.2,0.6,4.7,1.4,7.2,2.5
				c1.9,0.8,4,2,6.2,3.4c2.2,1.5,3.7,2.5,5.6,3.8l0.1-0.1l-0.5-2.4c0,0,0,0,0-0.1l0,0c-0.6-2.9,1.1-5.3,4-5.6v-0.1h0.3l0,0
				c1.9,0,8.5,0,11.5,0h2.1c0.1,0,0.2,0,0.2,0.1c2.9,0.4,5.7,2.8,6.4,5.6l10.9,47.2c0.2,1.1,0.4,2.4,0.6,3.9
				c0.1,1.5,0.3,2.7,0.3,3.6C184.9-128.5,182-123.6,176.4-120.4"/>
		</g>
		<g id="g3023" transform="translate(196.3,54.997)">
			<path id="path3025" fill="#FFFFFF" d="M360.8-126.5h-13.4l0,0l0,0c-3.1,0-6.2-2.3-7-5.3c0-0.1-0.1-0.2-0.1-0.4c0,0-0.3-1.5-0.9-4
				L321-219.6c-0.4-1.9-0.7-3.1-0.8-3.4l0,0c-0.6-2.9,1.1-5.3,4-5.6v-0.1h13.9c3,0,6.1,2.3,7,5.3c0,0.1,0.1,0.3,0.1,0.4l20.1,90.8
				l0,0C366-129,364-126.5,360.8-126.5"/>
		</g>
	</g>
</g>
</svg>
