<?xml version="1.0" encoding="utf-8"?>
<!-- Generator: Adobe Illustrator 17.1.0, SVG Export Plug-In . SVG Version: 6.00 Build 0)  -->
<!DOCTYPE svg PUBLIC "-//W3C//DTD SVG 1.1//EN" "http://www.w3.org/Graphics/SVG/1.1/DTD/svg11.dtd">
<svg version="1.1" id="Layer_1" xmlns="http://www.w3.org/2000/svg" xmlns:xlink="http://www.w3.org/1999/xlink" x="0px" y="0px"
	 viewBox="0 0 860 540" enable-background="new 0 0 860 540" xml:space="preserve">
<path fill="#0066B2" d="M817.2,538H42.8C20.2,538,2,519.8,2,497.2V42.9C2,20.3,20.2,2.1,42.8,2.1h774.5c22.5,0,40.8,18.2,40.8,40.8
	v454.4C858,519.8,839.8,538,817.2,538z"/>
<g>
	<g>
		<polygon fill="#FFFFFF" points="361,388.7 299.6,388.7 338,153 399.3,153 		"/>
		<path fill="#FFFFFF" d="M248,153l-58.5,162.1l-6.9-34.9l0,0l-20.7-106c0,0-2.5-21.2-29.1-21.2H36.1l-1.1,4c0,0,29.6,6.2,64.2,27
			l53.3,204.8h63.9L314,153H248z"/>
		<path fill="#FFFFFF" d="M730.7,388.7h56.4L737.9,153h-49.3c-22.8,0-28.3,17.6-28.3,17.6l-91.5,218.2h64l12.8-35h78L730.7,388.7z
			 M663.2,305.3l32.2-88.2l18.1,88.2H663.2z"/>
		<path fill="#FFFFFF" d="M573.5,209.7l8.8-50.6c0,0-27-10.3-55.2-10.3c-30.5,0-102.8,13.3-102.8,78c0,60.9,84.9,61.7,84.9,93.6
			s-76.1,26.3-101.3,6.1l-9.1,52.9c0,0,27.4,13.3,69.3,13.3S573.2,371,573.2,312c0-61.3-85.7-67-85.7-93.6
			C487.5,191.8,547.3,195.2,573.5,209.7z"/>
	</g>
	<path fill="#FFFFFF" d="M182.6,280.2l-20.7-106c0,0-2.5-21.2-29.1-21.2H36.1l-1.1,4c0,0,46.5,9.6,91.1,45.7
		C168.6,237.2,182.6,280.2,182.6,280.2z"/>
</g>
</svg>
